<?xml version="1.0" standalone="no"?>
<!DOCTYPE svg PUBLIC "-//W3C//DTD SVG 20010904//EN"
 "http://www.w3.org/TR/2001/REC-SVG-20010904/DTD/svg10.dtd">
<svg version="1.0" xmlns="http://www.w3.org/2000/svg"
 width="759.000000pt" height="759.000000pt" viewBox="0 0 759.000000 759.000000"
 preserveAspectRatio="xMidYMid meet">
<metadata>
Created by potrace 1.14, written by Peter Selinger 2001-2017
</metadata>
<g transform="translate(0.000000,759.000000) scale(0.100000,-0.100000)"
fill="#000000" stroke="none">
<path d="M390 3765 l0 -3415 3415 0 3415 0 0 3415 0 3415 -3415 0 -3415 0 0
-3415z m3560 1856 c74 -5 141 -15 165 -25 22 -9 67 -46 101 -81 48 -50 69 -65
91 -65 71 -1 173 -79 228 -176 16 -27 41 -64 56 -81 28 -33 41 -70 54 -149 6
-37 3 -44 -19 -62 -26 -20 -26 -21 -26 -166 0 -142 -18 -266 -50 -352 -10 -25
-8 -30 14 -46 36 -27 39 -63 16 -177 -37 -183 -81 -265 -148 -279 -31 -7 -33
-10 -80 -147 -56 -167 -123 -275 -231 -377 -189 -179 -407 -192 -617 -36 -72
54 -156 146 -204 226 -19 32 -57 119 -85 195 -44 121 -53 137 -73 137 -72 0
-116 68 -157 242 -32 137 -32 168 0 206 l25 30 -20 76 c-33 132 -43 270 -29
408 7 68 13 147 14 176 2 44 11 65 56 135 73 113 68 108 216 218 253 188 262
192 448 185 72 -3 186 -10 255 -15z m-708 -2238 c30 -27 22 -58 -26 -100 -51
-45 -152 -101 -543 -301 -155 -79 -293 -157 -322 -181 -55 -46 -103 -114 -126
-180 -20 -58 -36 -199 -28 -260 l6 -50 91 -40 c405 -176 961 -261 1616 -248
378 8 625 35 929 103 135 30 374 107 479 154 l72 33 0 107 c0 184 -48 291
-172 385 -37 28 -219 131 -405 229 -452 239 -483 260 -483 316 0 23 6 33 26
42 28 13 23 15 125 -53 49 -33 165 -96 569 -308 177 -93 248 -141 308 -206 99
-108 143 -237 141 -414 -2 -156 -4 -160 -74 -198 -87 -47 -245 -108 -387 -149
-768 -221 -1911 -203 -2619 41 -121 42 -302 126 -315 146 -15 24 -21 150 -12
244 15 165 72 284 182 382 58 52 205 133 536 298 196 98 306 160 348 196 37
33 58 36 84 12z"/>
<path d="M3525 5517 c-16 -8 -73 -47 -125 -86 -52 -39 -125 -92 -162 -117 -38
-26 -68 -50 -68 -54 0 -4 -19 -36 -42 -71 -29 -44 -42 -76 -43 -104 -1 -22 -8
-78 -15 -125 -19 -125 -8 -301 25 -425 39 -144 40 -153 20 -175 -10 -11 -24
-20 -32 -20 -7 0 -13 -9 -13 -19 0 -26 27 -143 46 -203 15 -47 16 -47 40 -32
26 18 72 12 79 -9 44 -132 122 -332 147 -380 48 -91 177 -218 264 -259 61 -29
79 -33 154 -33 74 0 92 4 139 29 110 57 243 214 291 343 12 32 37 112 56 177
19 66 40 126 46 133 14 18 48 16 69 -3 17 -15 19 -14 32 18 13 32 37 120 52
196 6 29 4 34 -14 39 -12 3 -28 18 -36 33 -13 26 -12 36 9 104 56 175 69 378
35 538 -11 50 -10 53 14 74 l26 22 -42 68 c-23 38 -63 89 -88 115 -39 39 -55
47 -108 58 -58 11 -68 17 -120 73 -31 33 -65 65 -76 71 -24 13 -162 25 -375
32 -121 4 -162 2 -185 -8z"/>
</g>
</svg>
